<svg xmlns="http://www.w3.org/2000/svg" viewBox="0 0 64 64" role="img" aria-label="Washington Nationals">
  <defs>
    <radialGradient id="bg" cx="50%" cy="40%" r="70%">
      <stop offset="0%" stop-color="#17233b"/>
      <stop offset="100%" stop-color="#0b1220"/>
    </radialGradient>
  </defs>
  <circle cx="32" cy="32" r="31" fill="url(#bg)" stroke="#1e2b47"/>
  <g transform="translate(8,10)">
    <path d="M18 34q8-6 8-16 0-5-3-8t-7-3q-4 0-7 3t-3 8q0 6 3.5 10.5T18 34z" fill="#e4002b"/>
    <path d="M18 34q8-6 8-16 0-5-3-8t-7-3q-4 0-7 3t-3 8q0 6 3.5 10.5T18 34z" fill="none" stroke="#ffffff" stroke-width="2"/>
    <path d="M29 34q8-6 8-16 0-5-3-8t-7-3q-4 0-7 3t-3 8q0 6 3.5 10.5T29 34z" fill="none" stroke="#e4002b" stroke-width="3"/>
  </g>
</svg>


